<?xml version="1.0" encoding="UTF-8"?>
<!-- Created with Inkscape (http://www.inkscape.org/) -->
<svg width="16.933mm" height="16.933mm" version="1.1" viewBox="0 0 16.933 16.933" xmlns="http://www.w3.org/2000/svg">
 <g transform="translate(-58.712 -67.75)">
  <path d="m62.081 69.586c-0.39165 1e-6 -0.78315 0.14991-1.0833 0.45001-0.60021 0.60021-0.60021 1.5669 0 2.1671l4.0136 4.0136-4.0136 4.0136c-0.60021 0.60021-0.60021 1.5669-2e-6 2.1671 0.60021 0.60021 1.5669 0.60021 2.1671-1e-6l4.0136-4.0136 4.0136 4.0136c0.60021 0.60021 1.5669 0.60021 2.1671-2e-6 0.60021-0.60021 0.60021-1.5669 2e-6 -2.1671l-4.0136-4.0136 4.0136-4.0136c0.60021-0.60021 0.60021-1.5669 2e-6 -2.1671-0.60021-0.60021-1.5669-0.60021-2.1671 1e-6l-4.0136 4.0136-4.0136-4.0136c-0.3001-0.3001-0.69222-0.45001-1.0839-0.45001z" fill="#aaa"/>
 </g>
</svg>
